<?xml version="1.0" encoding="UTF-8" standalone="no"?>
<!-- Created with Inkscape (http://www.inkscape.org/) -->

<svg
   xmlns:dc="http://purl.org/dc/elements/1.1/"
   xmlns:cc="http://creativecommons.org/ns#"
   xmlns:rdf="http://www.w3.org/1999/02/22-rdf-syntax-ns#"
   xmlns:svg="http://www.w3.org/2000/svg"
   xmlns="http://www.w3.org/2000/svg"
   version="1.1"
   width="292"
   height="300"
   id="svg2">
  <defs
     id="defs7" />
  <metadata
     id="metadata7950">
    <rdf:RDF>
      <cc:Work
         rdf:about="">
        <dc:format>image/svg+xml</dc:format>
        <dc:type
           rdf:resource="http://purl.org/dc/dcmitype/StillImage" />
        <dc:title></dc:title>
      </cc:Work>
    </rdf:RDF>
  </metadata>
  <g
     transform="matrix(3.964375527188067,0,0,3.964375527188067,796.9207089199977,-600.8850183458446)"
     id="g843"
     style="stroke:#000000;stroke-width:1.5;stroke-linecap:round;stroke-linejoin:round">
    <g
       transform="matrix(-0.9659258262890681,-0.2588190451025207,-0.2588190451025207,0.9659258262890681,-273.4698936955999,-36.83816385189408)"
       id="g826"
       style="fill:#e9e9e9">
      <path
         d="m -187.9390873445561,204.5021183921045 c 0.3112230634988,4.1648983752518 -0.3612065167252,8.9860958458757 -4.3697034013595,10.606461892391 -1.5217455958837,0.3510137315498 -4.0208253424318,0.1259786830777 -3.5950741619963,3.2066403182866 0.1938101174615,1.4023763663278 1.6640511498777,1.6086018020105 3.6464337974056,0.4684676875781 0.6677092891677,0.3389252445668 1.2724635905098,0.8142529627554 2.3718395235262,0.2179004789836 l 4.7272245887438,-3.9724576375996 2.8204449226957,-5.9984110327754 2.5820974644397,-3.8930084848478 -5.6806144217677,-1.9465042424238 z"
         id="path993" />
      <path
         d="m -186.6281766529589,176.7743641466998 c -0.833600417876,-4.047102726496 -1.7774520662615,-8.0060044685845 -1.5889830542012,-12.8707627390295 0.451089722601,-11.6435186598981 6.0948969826012,-22.3603444152721 9.5338983252073,-3.8930084827928 l -0.5561440689707,7.3887712020354 -3.019067802982,10.3283898523075 z"
         id="path941" />
      <path
         d="m -147.7183876838189,225.4170351544991 c 0.9315620295565,5.5472639265082 8.3891851616397,1.0477669948983 10.6664823220576,-2.4032641305593 1.7093601167627,-2.5903755865054 2.9480649673517,-6.7674238571355 0.2281103894062,-9.0047512264589 -3.1568298818871,-2.5966837653512 -9.4298497566399,5.5279166803539 -10.5565002417155,9.7992427535596 -0.2042356669963,0.8656913197755 -0.5424868726941,0.7431187483569 -0.3380924697483,1.6087726034586 z"
         id="path991" />
      <path
         d="m -196.4004224363127,181.0646183930462 c 2.5953880295156,-7.0586931059322 5.1546734999498,-6.6526403270498 11.7584746010882,-5.7203389951241 1.6880693141514,-3.9400293646858 3.1375287853864,-8.5958882581197 4.5286017044731,-13.4269068079995 2.9005509421293,-10.0732429005219 8.2751180803847,-16.8525421670855 10.2519730717156,-5.8156083243913 0.9851067084502,5.4999267102726 -0.7392720351433,10.5565422084018 -4.7934511134951,13.9268874235956 -3.5929348986262,2.2353645349027 -5.325628656032,3.9728799021595 -4.7434795838297,8.1757972063572 2.8546897544267,2.6972536635427 5.4290265084216,5.730930927604 7.229872896615,9.6927966306269 11.3338750243812,1.9997663459709 20.2215561197761,1.5376029096929 27.7733609646241,12.866464611269 6.5891749748554,9.8847697406466 7.9841797390609,20.8657676125944 -4.8655405130538,26.8776933025302 0.6982330061594,1.8594769950751 0.044842972327,3.3880791625087 -2.4718775212907,2.1348033145421 l -19.1108633877785,-5.9680482015189 c -2.3406148292529,-0.8552484807658 -5.0865303362071,0.137172407229 -5.3826110043121,-2.8237285271812 -0.2553188700998,-2.5532699783793 3.2104292010277,-2.8263836212781 4.8787640520899,-2.8521148281742 2.4340205090344,-0.6100324540931 2.8793503716487,-1.3326274958347 2.7355082379363,-1.8442023222154 -0.1386345949228,-0.4930542046165 -4.0409527971409,-0.5336243446279 -4.0193980954923,-1.0622761707047 -2.889966922025,-0.030232413647 -5.9040582184115,0.9739049590535 -8.3706761636886,-2.5842355941588 -7.1935991396847,-1.0708368409269 -9.8229190429878,-9.6506491997732 -10.472810677577,-21.4869403232765 -1.609779955053,-0.4868210661307 -3.2281465889518,-0.9450198694423 -4.5286017044736,-2.4629237340117 -0.8820589367092,0.04870954139 -1.4876005055723,-0.2904986795915 -2.2643008520268,-0.8739406797268 -1.4356193832711,0.1259934289027 -1.3883820001493,-1.520495267108 -0.9533898325206,-2.4629237340117 0.7795430604009,-1.6889121827281 1.741969527724,-3.3193693022207 2.8204449209967,-4.2902542464262 z"
         id="path939" />
      <path
         d="m -191.4745749682884,191.1546607872231 c 2.0640718811162,0.2186811170361 4.0744045050236,0.2224052052377 5.720339324299,-1.2314619250894"
         id="path962" />
      <path
         d="m -198.2674775247888,187.8177963734846 c -0.063579822393,-1.0063510072614 1.1140595264302,-0.7667238136696 1.1889147986234,-1.277517849308"
         id="path964" />
      <path
         d="m -190.8611845462735,182.2487432996684 c -0.3899707605832,-2.8094474584073 1.6803446080826,-3.1856195644278 4.0448904973397,-3.0055783556621 -0.1239496184945,0.2988045688123 -0.6298163483764,0.5989995833524 -0.5898798641957,1.1235806937054 -0.2130992992682,2.2427432365982 -1.6347675881081,2.5580930537659 -3.455010633144,1.8819976619567 z"
         id="path966" />
      <path
         d="m -188.0960397011995,181.1501589855864 a 1.047931687685084,1.047931687685098 0 1 1 -2.0958633753701,0 1.047931687685084,1.047931687685098 0 1 1 2.0958633753701,0 z"
         id="path968" />
      <path
         d="m -172.0413568672968,209.7657880825939 c -1.8945325620841,3.4317049661616 -0.434834819967,7.2243968345174 0.6941585978301,8.3665271149841 2.3352386884057,-0.020661333676 7.6719806783289,4.422731855033 12.8415612872634,4.6798987864682 -5.0040808357313,-6.8832931503773 0.9045810002283,-16.3615497207154 6.4079860246763,-15.788516347885"
         id="path989" />
      <path
         d="m -183.0121332726346,206.1313103972074 c -1.5800542667082,1.8069893243056 -1.5157296560784,2.6791328994318 -2.2527265635242,4.4803048746045 -0.7580958399741,1.8527363787559 -1.8587964209931,3.5590633227877 -3.2124680137241,4.9463972899291 -1.4738354172966,-0.059072190068 -4.1000111999263,0.1819757918641 -3.6265715092491,2.9215104368887 0.2477021472615,1.4333158529636 5.6575884577959,1.4453444725618 6.0497706681846,0.9714980479597 3.2057910103132,-2.7608321040773 4.1722223465008,-7.0515565023484 7.6668432405675,-9.772245788495 1.7884104779505,-1.3923425098424 3.0618615732966,-5.2481697688153 2.615006380999,-7.7308066822352"
         id="path995" />
      <path
         d="m -174.6502065884953,221.9954102983962 c -0.3231730029156,-0.7067335643846 -0.033757642009,-1.6278825965878 0.6881931755098,-1.9662662150965"
         id="path1019" />
      <path
         d="m -173.0210145817624,222.4448425761157 c -0.3793520376305,-0.6926888057059 -0.075891918046,-1.6559721139453 0.6460588994736,-1.994355732454"
         id="path1021" />
      <path
         d="m -190.7258809617237,218.8262309384943 c -0.3231730029156,-0.7067335643846 -0.033757642009,-1.6278825965878 0.6881931755098,-1.9662662150965"
         id="path1042" />
      <path
         d="m -189.0966889549907,219.2756632162138 c -0.3793520376305,-0.6926888057059 -0.075891918046,-1.6559721139453 0.6460588994735,-1.994355732454"
         id="path1044" />
      <path
         d="m -194.4758315290933,218.7560071451154 c -0.3231730029157,-0.7067335643846 -0.033757642009,-1.6278825965878 0.6881931755098,-1.9662662150965"
         id="path1046" />
    </g>
  </g>
</svg>
